HIERARCHY
ROOT Hips
{
	OFFSET 0.000000 0.000000 0.000000
	CHANNELS 6 Xposition Yposition Zposition Xrotation Yrotation Zrotation
	JOINT LeftUpLeg_virtual
	{
		OFFSET 0.000000 0.000000 0.000000
		CHANNELS 3 Xrotation Yrotation Zrotation
		JOINT LeftUpLeg
		{
			OFFSET 15.427100 -6.655098 0.678600
			CHANNELS 3 Xrotation Yrotation Zrotation
			JOINT LeftLeg
			{
				OFFSET 4.081073 -39.591068 13.024000
				CHANNELS 3 Xrotation Yrotation Zrotation
				JOINT LeftFoot
				{
					OFFSET -4.081074 -37.707932 -15.979700
					CHANNELS 3 Xrotation Yrotation Zrotation
					JOINT LeftToeBase
					{
						OFFSET 5.346399 -15.068900 20.645000
						CHANNELS 3 Xrotation Yrotation Zrotation
						JOINT LeftToe_End
						{
							OFFSET 2.754700 0.931300 11.300900
							CHANNELS 3 Xrotation Yrotation Zrotation
							End Site
							{
								OFFSET 0 0 0
							}
						}
					}
				}
			}
		}
	}
	JOINT RightUpLeg_virtual
	{
		OFFSET 0.000000 0.000000 0.000000
		CHANNELS 3 Xrotation Yrotation Zrotation
		JOINT RightUpLeg
		{
			OFFSET -15.569500 -6.655098 0.678600
			CHANNELS 3 Xrotation Yrotation Zrotation
			JOINT RightLeg
			{
				OFFSET -4.081825 -39.591045 13.023800
				CHANNELS 3 Xrotation Yrotation Zrotation
				JOINT RightFoot
				{
					OFFSET 4.081824 -37.707954 -15.979600
					CHANNELS 3 Xrotation Yrotation Zrotation
					JOINT RightToeBase
					{
						OFFSET -5.346400 -15.068900 20.645000
						CHANNELS 3 Xrotation Yrotation Zrotation
						JOINT RightToe_End
						{
							OFFSET -2.754700 0.931300 11.300900
							CHANNELS 3 Xrotation Yrotation Zrotation
							End Site
							{
								OFFSET 0 0 0
							}
						}
					}
				}
			}
		}
	}
	JOINT Spine_virtual
	{
		OFFSET 0.000000 0.000000 0.000000
		CHANNELS 3 Xrotation Yrotation Zrotation
		JOINT Spine
		{
			OFFSET -0.279200 12.230698 -2.892100
			CHANNELS 3 Xrotation Yrotation Zrotation
			JOINT Spine1
			{
				OFFSET -0.232667 10.192268 -1.242267
				CHANNELS 3 Xrotation Yrotation Zrotation
				JOINT Spine1_split
				{
					OFFSET -0.232667 10.192268 -1.242267
					CHANNELS 3 Xrotation Yrotation Zrotation
					JOINT Spine2
					{
						OFFSET -0.232667 10.192268 -1.242267
						CHANNELS 3 Xrotation Yrotation Zrotation
						JOINT Neck_virtual
						{
							OFFSET 0.000000 0.000000 0.000000
							CHANNELS 3 Xrotation Yrotation Zrotation
							JOINT Neck
							{
								OFFSET -0.418800 17.814194 8.416900
								CHANNELS 3 Xrotation Yrotation Zrotation
								JOINT Head
								{
									OFFSET 0.000000 7.031097 3.806800
									CHANNELS 3 Xrotation Yrotation Zrotation
									JOINT HeadTop_End
									{
										OFFSET 0.000000 24.646606 12.978600
										CHANNELS 3 Xrotation Yrotation Zrotation
										End Site
										{
											OFFSET 0 0 0
										}
									}
								}
							}
						}
						JOINT LeftShoulder_virtual
						{
							OFFSET 0.000000 0.000000 0.000000
							CHANNELS 3 Xrotation Yrotation Zrotation
							JOINT LeftShoulder
							{
								OFFSET 8.476499 7.247704 -3.868750
								CHANNELS 3 Xrotation Yrotation Zrotation
								JOINT LeftShoulder_split
								{
									OFFSET 8.476499 7.247704 -3.868750
									CHANNELS 3 Xrotation Yrotation Zrotation
									JOINT LeftArm
									{
										OFFSET 9.308998 -2.777710 0.208600
										CHANNELS 3 Xrotation Yrotation Zrotation
										JOINT LeftForeArm
										{
											OFFSET 29.972298 0.000000 0.000000
											CHANNELS 3 Xrotation Yrotation Zrotation
											JOINT LeftHand
											{
												OFFSET 26.026505 0.000000 0.000000
												CHANNELS 3 Xrotation Yrotation Zrotation
												End Site
												{
													OFFSET 0 0 0
												}
											}
										}
									}
								}
							}
						}
						JOINT RightShoulder_virtual
						{
							OFFSET 0.000000 0.000000 0.000000
							CHANNELS 3 Xrotation Yrotation Zrotation
							JOINT RightShoulder
							{
								OFFSET -7.570500 7.247704 -3.868750
								CHANNELS 3 Xrotation Yrotation Zrotation
								JOINT RightShoulder_split
								{
									OFFSET -7.570500 7.247704 -3.868750
									CHANNELS 3 Xrotation Yrotation Zrotation
									JOINT RightArm
									{
										OFFSET -9.308998 -2.777710 0.208500
										CHANNELS 3 Xrotation Yrotation Zrotation
										JOINT RightForeArm
										{
											OFFSET -29.972300 0.000000 0.000000
											CHANNELS 3 Xrotation Yrotation Zrotation
											JOINT RightHand
											{
												OFFSET -26.026505 0.000000 0.000000
												CHANNELS 3 Xrotation Yrotation Zrotation
												End Site
												{
													OFFSET 0 0 0
												}
											}
										}
									}
								}
							}
						}
					}
				}
			}
		}
	}
}
MOTION
Frames: 5
Frame Time: 0.03333333
7.979663 87.215622 115.890221 0.000000 0.000000 0.000000 22.598962 25.444476 -6.244387 -33.901941 11.933391 11.636332 39.983623 10.835980 -4.254733 -6.902665 31.641654 -7.973888 -8.201620 0.582154 -2.677293 0.000000 0.000000 0.000000 23.703352 24.338824 -6.993370 -48.711693 -4.129003 -5.346093 36.158772 -3.833999 -4.556462 -4.615253 -7.914460 4.802724 3.237306 0.607753 0.907860 0.000000 0.000000 0.000000 21.507642 20.658074 -5.778489 11.726193 -1.171456 2.666448 8.423217 -2.744882 0.668730 0.733928 3.733911 0.165448 0.000000 0.000000 0.000000 8.863286 -2.867872 0.543563 -6.137034 0.168408 2.592065 -21.132373 0.951332 1.839562 0.000000 0.000000 0.000000 9.078225 -2.934044 0.680340 0.681659 -8.570082 -6.256422 4.288632 -5.117313 0.777753 -26.439293 -23.116195 -31.450429 -0.075355 -25.895638 -0.064116 0.000000 0.000000 0.000000 9.311397 -2.697586 0.805397 2.194196 5.225859 4.269539 4.825226 3.633295 -0.973779 -17.041901 -8.087404 54.305919 0.874618 64.879120 -1.206115 0.000000 0.000000 0.000000 
8.559379 89.647781 118.996231 0.000000 0.000000 0.000000 23.210040 27.539009 -6.907517 -36.395278 11.381280 9.536238 35.090353 10.036240 -4.491890 -3.314748 31.083901 -9.197358 -8.281490 0.122370 -1.322672 0.000000 0.000000 0.000000 24.292092 27.107358 -7.799684 -41.366406 -6.522394 -5.218438 29.812379 -4.299378 -5.058412 -5.290109 -9.275985 6.077846 2.310917 0.778236 1.073428 0.000000 0.000000 0.000000 22.005674 22.385764 -6.256513 11.114944 -0.090206 2.551589 8.765283 -2.461414 0.694230 0.666678 4.000349 0.067030 0.000000 0.000000 0.000000 9.096096 -2.589847 0.593186 -5.577631 -0.309380 2.015544 -23.662767 -1.890188 0.586361 0.000000 0.000000 0.000000 9.329787 -2.627717 0.578331 0.928973 -8.129599 -6.228805 4.628607 -5.239695 0.783684 -23.823054 -23.587664 -31.211851 0.404769 -24.687990 0.259739 0.000000 0.000000 0.000000 9.706004 -2.342811 0.827833 2.160932 5.525798 4.569839 4.490927 3.474104 -0.718729 -18.791966 -9.217013 55.436503 0.199470 68.929709 -0.655254 0.000000 0.000000 0.000000 
9.307921 90.683800 121.895721 0.000000 0.000000 0.000000 23.206102 28.936301 -7.622584 -39.091184 10.834558 8.557319 31.864335 9.575626 -4.994995 -0.640354 30.873319 -9.200587 -6.953740 -0.196568 -0.552532 0.000000 0.000000 0.000000 24.366628 29.188298 -8.611740 -34.681286 -8.944439 -4.572858 25.538321 -4.633750 -5.412587 -7.215571 -11.012164 6.718260 0.940619 0.975343 1.125971 0.000000 0.000000 0.000000 21.936708 24.061090 -6.753046 10.596737 0.976434 2.726808 9.013872 -2.087627 0.540393 0.451844 4.077440 -0.243090 0.000000 0.000000 0.000000 9.177004 -2.280888 0.483598 -5.287495 -0.602538 1.118719 -26.003756 -4.630406 -0.790991 0.000000 0.000000 0.000000 9.574008 -2.282194 0.336452 1.140203 -7.337144 -6.154595 4.537135 -5.217470 0.747682 -21.180459 -23.005648 -30.908491 0.879869 -25.486246 0.637128 0.000000 0.000000 0.000000 10.057665 -1.969173 0.672217 2.106205 6.049377 4.830068 4.019396 3.427320 -0.411894 -19.298320 -9.712321 56.846404 -0.489770 73.561923 -0.020654 0.000000 0.000000 0.000000 
10.105455 90.333931 124.584518 0.000000 0.000000 0.000000 22.455230 29.884270 -8.296177 -41.905041 10.437718 8.126940 30.603697 9.465798 -5.468218 0.292188 30.920389 -7.664447 -5.109641 -0.370904 -0.027558 0.000000 0.000000 0.000000 23.879286 30.686968 -9.285925 -28.975097 -11.065338 -3.412189 24.430388 -4.930896 -5.478528 -10.921875 -13.080956 6.259130 0.164393 1.173342 0.985391 0.000000 0.000000 0.000000 21.300124 25.859451 -7.283710 10.196733 2.021771 3.110831 9.075174 -1.581734 0.229040 0.378098 4.089414 -0.412222 0.000000 0.000000 0.000000 9.086092 -1.900755 0.226117 -5.262858 -0.907876 0.029011 -27.772051 -7.368037 -1.995732 0.000000 0.000000 0.000000 9.714181 -1.855879 0.008324 1.313389 -6.234903 -5.939021 4.159655 -5.151655 0.812206 -18.705416 -21.413632 -30.598325 1.265372 -28.563493 0.974799 0.000000 0.000000 0.000000 10.298307 -1.517518 0.365287 2.045168 6.821841 4.922412 3.503614 3.474255 -0.181092 -18.766715 -9.408119 58.635009 -0.836367 77.994538 0.311638 0.000000 0.000000 0.000000 
10.829671 88.958679 127.183960 0.000000 0.000000 0.000000 21.170737 30.586021 -8.841130 -44.670434 10.068934 7.855016 31.087760 9.730379 -5.904352 -0.257471 30.661911 -4.952868 -4.277674 -0.435716 0.526349 0.000000 0.000000 0.000000 22.811917 31.653808 -9.779049 -24.370388 -12.705293 -1.898630 26.303572 -4.998020 -5.100662 -15.821385 -15.106316 5.141981 -0.183705 1.319695 0.649537 0.000000 0.000000 0.000000 20.285360 27.777611 -7.809472 9.866934 3.023371 3.479138 8.877215 -0.966674 -0.163390 0.603855 3.987800 -0.470234 0.000000 0.000000 0.000000 8.834029 -1.393846 -0.116840 -5.413061 -1.295049 -1.053838 -28.751763 -10.215141 -2.732225 0.000000 0.000000 0.000000 9.664782 -1.297969 -0.323391 1.430365 -4.915525 -5.503533 3.681873 -4.966129 0.725462 -16.634166 -19.253473 -30.307342 1.423444 -33.509482 1.153444 0.000000 0.000000 0.000000 10.295391 -0.968487 -0.011530 1.966380 7.776352 4.810979 3.046151 3.629672 -0.091781 -17.713324 -8.601924 60.656335 -0.453037 81.593167 -0.128973 0.000000 0.000000 0.000000 
